<svg xmlns="http://www.w3.org/2000/svg" width="30" height="30"><path d="M19.286 1.053v2.631c0 .582-.48 1.053-1.072 1.053H1.071A1.062 1.062 0 0 1 0 3.684V1.053C0 .47.48 0 1.071 0h17.143c.592 0 1.072.471 1.072 1.053zM0 9.473v2.632c0 .582.48 1.053 1.071 1.053H28.93c.591 0 1.071-.471 1.071-1.053V9.474c0-.582-.48-1.053-1.071-1.053H1.07C.48 8.421 0 8.892 0 9.474zM1.071 30H28.93c.59 0 1.07-.471 1.07-1.053v-2.631c0-.582-.48-1.053-1.071-1.053H1.07c-.59 0-1.07.471-1.07 1.053v2.631C0 29.53.48 30 1.071 30zm17.143-13.158H1.071C.48 16.842 0 17.313 0 17.895v2.631c0 .582.48 1.053 1.071 1.053h17.143c.592 0 1.072-.471 1.072-1.053v-2.631c0-.582-.48-1.053-1.072-1.053z" fill="#fff"/></svg>