<svg xmlns="http://www.w3.org/2000/svg" width="69.915" height="60"><path d="M27.189 43.775c-4.564 0-8.864-.905-12.64-2.504-3.81 3.288-8.482 5.291-13.445 5.866a1.048 1.156 0 0 1-.108.007c-.454 0-.863-.335-.973-.812-.12-.53.253-.857.622-1.246 1.823-1.934 4.032-3.454 4.896-9.951C2.065 31.458 0 26.869 0 21.888 0 9.798 12.174 0 27.189 0s27.189 9.798 27.189 21.888c0 12.098-12.174 21.888-27.189 21.888zM69.316 58.13c-1.693-1.758-3.745-3.14-4.547-9.046 8.352-8.647 6.332-21.018-4.573-27.732.004.179.009.357.009.536 0 16.406-15.729 28.982-34.502 28.29 4.627 4.146 11.408 6.762 18.965 6.762 4.238 0 8.231-.823 11.738-2.277 3.537 2.99 7.875 4.81 12.484 5.332.46.053.894-.264 1.004-.732.11-.482-.235-.779-.577-1.133z" fill="#c7ae62" opacity=".99"/></svg>