<svg xmlns="http://www.w3.org/2000/svg" width="75" height="60"><path d="M24.375 37.5h45a1.88 1.88 0 0 0 1.875-1.875v-30a1.88 1.88 0 0 0-1.875-1.875H52.5v15L46.875 15l-5.625 3.75v-15H24.375A1.88 1.88 0 0 0 22.5 5.625v30a1.88 1.88 0 0 0 1.875 1.875zm48.75 7.5H15V1.875A1.88 1.88 0 0 0 13.125 0H1.875A1.88 1.88 0 0 0 0 1.875v3.75A1.88 1.88 0 0 0 1.875 7.5H7.5v43.125A1.88 1.88 0 0 0 9.375 52.5h9.715a5.54 5.54 0 0 0-.34 1.875A5.626 5.626 0 0 0 24.375 60 5.626 5.626 0 0 0 30 54.375c0-.656-.14-1.29-.34-1.875h23.192a5.54 5.54 0 0 0-.34 1.875A5.626 5.626 0 0 0 58.137 60a5.626 5.626 0 0 0 5.625-5.625c0-.656-.14-1.29-.34-1.875h9.703A1.88 1.88 0 0 0 75 50.625v-3.75A1.88 1.88 0 0 0 73.125 45z" fill="#fff"/></svg>