<svg xmlns="http://www.w3.org/2000/svg" width="30" height="30"><path d="M22.5 14.531v1.64c0 .388-.422.704-.938.704H8.438c-.515 0-.937-.316-.937-.703v-1.64c0-.387.422-.704.938-.704h13.124c.516 0 .938.317.938.703zm-.938 4.219H8.438c-.515 0-.937.316-.937.703v1.64c0 .387.422.704.938.704h13.124c.516 0 .938-.317.938-.703v-1.64c0-.388-.422-.704-.938-.704zM30 7.729v19.459C30 28.74 28.32 30 26.25 30H3.75C1.68 30 0 28.74 0 27.187V2.813C0 1.26 1.68 0 3.75 0h15.945c.992 0 1.946.299 2.649.826l6.554 4.916C29.602 6.264 30 6.984 30 7.73zM20 3.04V7.5h5.945zm6.25 24.146V10.313h-8.125c-1.04 0-1.875-.626-1.875-1.406V2.812H3.75v24.375z" fill="#fff"/></svg>