<svg xmlns="http://www.w3.org/2000/svg" width="32" height="32"><path d="M22.982 11.871h8.479A16.02 16.02 0 0 1 32 16a16.02 16.02 0 0 1-.539 4.129h-8.48a35.029 35.029 0 0 0 0-8.258zM11.433 22.194c.69 3.463 2.14 7.259 4.524 9.805L16 32h.043c2.387-2.552 3.836-6.35 4.524-9.806zM22.667 9.806h8.09c-2.06-4.901-6.49-8.56-11.857-9.543 1.95 2.782 3.15 6.215 3.767 9.543zm-1.764 2.065h-9.806a33.108 33.108 0 0 0 0 8.258h9.806c.344-2.704.345-5.55 0-8.258zM9.333 22.194h-8.09c2.06 4.901 6.49 8.56 11.857 9.543-1.951-2.783-3.15-6.216-3.767-9.543zm13.334 0c-.617 3.329-1.817 6.762-3.767 9.543 5.366-.982 9.797-4.642 11.857-9.543zm-2.1-12.388c-.69-3.463-2.14-7.259-4.524-9.805L16 0h-.043c-2.387 2.552-3.836 6.35-4.524 9.806zM.539 11.871A16.018 16.018 0 0 0 0 16c0 1.428.188 2.812.539 4.129h8.48a35.028 35.028 0 0 1 0-8.258zm8.794-2.065C9.95 6.477 11.149 3.045 13.1.263c-5.366.982-9.797 4.642-11.857 9.543z" fill="#fff"/></svg>