<svg xmlns="http://www.w3.org/2000/svg" width="60.013" height="60"><path d="M30.013 14.617A15.359 15.359 0 0 0 14.63 30a15.359 15.359 0 0 0 15.383 15.383A15.359 15.359 0 0 0 45.396 30a15.359 15.359 0 0 0-15.383-15.383zm0 25.384c-5.502 0-10-4.485-10-10.001 0-5.516 4.484-10.001 10-10.001s10.001 4.485 10.001 10c0 5.517-4.498 10.002-10 10.002zm19.6-26.014a3.58 3.58 0 0 1-3.587 3.588 3.58 3.58 0 0 1-3.588-3.588 3.588 3.588 0 0 1 7.176 0zm10.19 3.642c-.228-4.806-1.326-9.064-4.847-12.572C51.448 1.55 47.19.452 42.384.211 37.43-.07 22.583-.07 17.629.21c-4.793.227-9.05 1.325-12.572 4.833C1.537 8.552.452 12.809.211 17.616c-.281 4.953-.281 19.8 0 24.755.227 4.806 1.325 9.063 4.846 12.571 3.522 3.508 7.766 4.606 12.572 4.847 4.954.28 19.801.28 24.755 0 4.806-.228 9.064-1.326 12.572-4.847 3.507-3.508 4.605-7.765 4.846-12.571.281-4.954.281-19.788 0-24.742zm-6.4 30.057c-1.045 2.624-3.066 4.645-5.704 5.703-3.95 1.567-13.321 1.205-17.686 1.205-4.364 0-13.75.348-17.686-1.205-2.624-1.044-4.645-3.066-5.703-5.703C5.057 43.736 5.419 34.364 5.419 30c0-4.365-.348-13.75 1.205-17.686C7.668 9.69 9.69 7.668 12.327 6.61c3.95-1.566 13.322-1.204 17.686-1.204 4.365 0 13.75-.349 17.686 1.204 2.624 1.045 4.646 3.066 5.704 5.704 1.566 3.95 1.204 13.321 1.204 17.686 0 4.364.362 13.75-1.204 17.686z" fill="#fff"/></svg>