<svg xmlns="http://www.w3.org/2000/svg" width="32" height="32"><path d="M7.573 11.274L17.35.418c.856-.95 2.205-.179 2.205 1.297v5.912C26.732 8.357 32 11.357 32 20.737c0 4.39-2.199 8.737-4.63 11.01-.758.71-1.84-.181-1.56-1.33 2.14-8.798-.217-12.107-6.254-13.002v6.013c0 1.478-1.35 2.246-2.205 1.297L7.573 13.869c-.615-.683-.616-1.911 0-2.595zM.462 13.869l9.778 10.856c.854.95 2.204.181 2.204-1.297v-1.13l-6.033-6.7a3.109 3.997 0 0 1-1.078-3.027 3.109 3.997 0 0 1 1.078-3.027l6.033-6.699v-1.13c0-1.476-1.348-2.247-2.204-1.297L.462 11.274c-.616.684-.615 1.912 0 2.595z" fill="#fff"/></svg>