<svg xmlns="http://www.w3.org/2000/svg" width="32" height="32"><path d="M19 11.999v2c0 .412-.337.75-.75.75h-3.5v3.5c0 .412-.337.75-.75.75h-2a.752.752 0 0 1-.75-.75v-3.5h-3.5a.752.752 0 0 1-.75-.75v-2c0-.413.338-.75.75-.75h3.5v-3.5c0-.412.338-.75.75-.75h2c.413 0 .75.338.75.75v3.5h3.5c.413 0 .75.337.75.75zM31.565 29.79l-1.769 1.768a1.494 1.494 0 0 1-2.119 0l-6.237-6.23a1.499 1.499 0 0 1-.44-1.062v-1.018a12.938 12.938 0 0 1-8 2.75c-7.181-.001-13-5.82-13-13.001C0 5.819 5.819 0 13 0c7.182 0 13.001 5.818 13.001 12.999 0 3.018-1.025 5.793-2.75 7.999h1.019c.4 0 .781.156 1.062.437l6.232 6.231a1.512 1.512 0 0 1 0 2.125zM21.501 12.999c0-4.7-3.8-8.5-8.5-8.5S4.5 8.3 4.5 13s3.8 8.499 8.5 8.499 8.5-3.8 8.5-8.5z" fill="#fff"/></svg>