<svg xmlns="http://www.w3.org/2000/svg" width="60" height="60"><path d="M53.571 0H6.43A6.43 6.43 0 0 0 0 6.429V53.57A6.43 6.43 0 0 0 6.429 60H53.57A6.43 6.43 0 0 0 60 53.571V6.43A6.43 6.43 0 0 0 53.571 0zm-6.549 21.268c.027.375.027.763.027 1.138 0 11.612-8.84 24.991-24.99 24.991A24.876 24.876 0 0 1 8.57 43.46c.71.08 1.393.107 2.117.107a17.61 17.61 0 0 0 10.901-3.75 8.795 8.795 0 0 1-8.21-6.094c1.353.201 2.572.201 3.965-.16a8.784 8.784 0 0 1-7.031-8.626v-.107a8.778 8.778 0 0 0 3.964 1.112 8.765 8.765 0 0 1-3.91-7.313c0-1.633.428-3.133 1.191-4.433a24.94 24.94 0 0 0 18.107 9.188c-1.245-5.96 3.214-10.795 8.572-10.795a8.752 8.752 0 0 1 6.415 2.773 17.212 17.212 0 0 0 5.571-2.116 8.76 8.76 0 0 1-3.857 4.834c1.768-.187 3.482-.683 5.063-1.366a18.489 18.489 0 0 1-4.407 4.554z" fill="#fff"/></svg>