<?xml version="1.0" encoding="UTF-8" standalone="no"?>
<svg
   xmlns:dc="http://purl.org/dc/elements/1.1/"
   xmlns:cc="http://creativecommons.org/ns#"
   xmlns:rdf="http://www.w3.org/1999/02/22-rdf-syntax-ns#"
   xmlns:svg="http://www.w3.org/2000/svg"
   xmlns="http://www.w3.org/2000/svg"
   xmlns:sodipodi="http://sodipodi.sourceforge.net/DTD/sodipodi-0.dtd"
   xmlns:inkscape="http://www.inkscape.org/namespaces/inkscape"
   viewBox="0 0 30 30"
   version="1.1"
   id="svg80"
   sodipodi:docname="align-left.svg"
   width="30"
   height="30"
   inkscape:version="0.92.2 (5c3e80d, 2017-08-06)">
  <metadata
     id="metadata86">
    <rdf:RDF>
      <cc:Work
         rdf:about="">
        <dc:format>image/svg+xml</dc:format>
        <dc:type
           rdf:resource="http://purl.org/dc/dcmitype/StillImage" />
      </cc:Work>
    </rdf:RDF>
  </metadata>
  <defs
     id="defs84" />
  <sodipodi:namedview
     pagecolor="#ffffff"
     bordercolor="#666666"
     borderopacity="1"
     objecttolerance="10"
     gridtolerance="10"
     guidetolerance="10"
     inkscape:pageopacity="0"
     inkscape:pageshadow="2"
     inkscape:window-width="1920"
     inkscape:window-height="983"
     id="namedview82"
     showgrid="false"
     inkscape:zoom="0.4609375"
     inkscape:cx="224"
     inkscape:cy="-64.88136"
     inkscape:window-x="1920"
     inkscape:window-y="1107"
     inkscape:window-maximized="1"
     inkscape:current-layer="svg80" />
  <path
     d="M 19.285714,1.052632 V 3.68421 c 0,0.581382 -0.479665,1.052631 -1.071429,1.052631 H 1.0714285 C 0.47966517,4.736841 0,4.265592 0,3.68421 V 1.052632 C 0,0.47125 0.47966517,0 1.0714285,0 H 18.214285 c 0.591764,0 1.071429,0.47125 1.071429,1.052632 z M 0,9.473685 v 2.631579 c 0,0.581382 0.47966517,1.052631 1.0714285,1.052631 H 28.928571 C 29.520334,13.157895 30,12.686646 30,12.105264 V 9.473685 C 30,8.892303 29.520334,8.421054 28.928571,8.421054 H 1.0714285 C 0.47966517,8.421054 0,8.892303 0,9.473685 Z M 1.0714285,30 H 28.928571 C 29.520334,30 30,29.528751 30,28.947369 V 26.31579 c 0,-0.581382 -0.479666,-1.052631 -1.071429,-1.052631 H 1.0714285 C 0.47966517,25.263159 0,25.734408 0,26.31579 v 2.631579 C 0,29.528751 0.47966517,30 1.0714285,30 Z M 18.214285,16.842105 H 1.0714285 C 0.47966517,16.842105 0,17.313354 0,17.894736 v 2.631579 c 0,0.581382 0.47966517,1.052631 1.0714285,1.052631 H 18.214285 c 0.591764,0 1.071429,-0.471249 1.071429,-1.052631 v -2.631579 c 0,-0.581382 -0.479665,-1.052631 -1.071429,-1.052631 z"
     id="path78"
     inkscape:connector-curvature="0"
     style="fill:#ffffff;stroke-width:0.06637428" />
</svg>
