<?xml version="1.0" encoding="UTF-8" standalone="no"?>
<svg
   xmlns:dc="http://purl.org/dc/elements/1.1/"
   xmlns:cc="http://creativecommons.org/ns#"
   xmlns:rdf="http://www.w3.org/1999/02/22-rdf-syntax-ns#"
   xmlns:svg="http://www.w3.org/2000/svg"
   xmlns="http://www.w3.org/2000/svg"
   xmlns:sodipodi="http://sodipodi.sourceforge.net/DTD/sodipodi-0.dtd"
   xmlns:inkscape="http://www.inkscape.org/namespaces/inkscape"
   viewBox="0 0 69.915253 60.000225"
   version="1.1"
   id="svg3749"
   sodipodi:docname="comments.svg"
   inkscape:version="0.92.2 (5c3e80d, 2017-08-06)"
   width="69.915253"
   height="60.000225">
  <metadata
     id="metadata3755">
    <rdf:RDF>
      <cc:Work
         rdf:about="">
        <dc:format>image/svg+xml</dc:format>
        <dc:type
           rdf:resource="http://purl.org/dc/dcmitype/StillImage" />
      </cc:Work>
    </rdf:RDF>
  </metadata>
  <defs
     id="defs3753" />
  <sodipodi:namedview
     pagecolor="#ffffff"
     bordercolor="#666666"
     borderopacity="1"
     objecttolerance="10"
     gridtolerance="10"
     guidetolerance="10"
     inkscape:pageopacity="0"
     inkscape:pageshadow="2"
     inkscape:window-width="800"
     inkscape:window-height="429"
     id="namedview3751"
     showgrid="false"
     inkscape:zoom="0.5"
     inkscape:cx="-189.83473"
     inkscape:cy="-7.9995499"
     inkscape:window-x="2086"
     inkscape:window-y="1219"
     inkscape:window-maximized="0"
     inkscape:current-layer="svg3749" />
  <path
     d="m 27.188883,43.77548 c -4.56373,0 -8.86396,-0.90576 -12.64081,-2.50449 -3.80826,3.28786 -8.4806303,5.29131 -13.4444503,5.86562 a 1.0477462,1.15609 0 0 1 -0.10792996,0.007 c -0.45348,0 -0.86313,-0.33456 -0.97309,-0.81174 -0.11907,-0.53051 0.25344,-0.85704 0.62217,-1.24624 C 2.4675427,43.15182 4.6772427,41.63156 5.5414727,35.13499 2.0652727,31.45847 1.2739216e-5,26.86945 1.2739216e-5,21.88816 1.2739216e-5,9.79838 12.173993,0 27.188973,0 c 15.01499,0 27.18896,9.79824 27.18896,21.88816 -10e-5,12.09824 -12.17397,21.88804 -27.18896,21.88804 z m 42.12676,14.3539 c -1.69251,-1.75811 -3.74443,-3.14014 -4.54687,-9.0461 8.35186,-8.64764 6.33248,-21.01841 -4.57284,-27.73235 0.004,0.17863 0.009,0.3572 0.009,0.53651 0,16.40558 -15.7287,28.98182 -34.50232,28.28912 4.6271,4.14664 11.40831,6.76244 18.96575,6.76244 4.23785,0 8.23086,-0.82341 11.73787,-2.27682 3.53628,2.98893 7.87485,4.81025 12.48422,5.33231 0.45955,0.0528 0.89372,-0.26424 1.00381,-0.73221 0.11056,-0.48227 -0.23523,-0.77905 -0.57764,-1.1329 z"
     id="path3747"
     inkscape:connector-curvature="0"
     style="stroke-width:0.12750065;fill:#c7ae62;opacity:0.99;fill-opacity:1" />
</svg>
