<?xml version="1.0" encoding="UTF-8" standalone="no"?>
<svg
   xmlns:dc="http://purl.org/dc/elements/1.1/"
   xmlns:cc="http://creativecommons.org/ns#"
   xmlns:rdf="http://www.w3.org/1999/02/22-rdf-syntax-ns#"
   xmlns:svg="http://www.w3.org/2000/svg"
   xmlns="http://www.w3.org/2000/svg"
   xmlns:sodipodi="http://sodipodi.sourceforge.net/DTD/sodipodi-0.dtd"
   xmlns:inkscape="http://www.inkscape.org/namespaces/inkscape"
   viewBox="0 0 75 60"
   version="1.1"
   id="svg4630"
   sodipodi:docname="dolly-flatbed.svg"
   inkscape:version="0.92.2 (5c3e80d, 2017-08-06)"
   width="75"
   height="60">
  <metadata
     id="metadata4636">
    <rdf:RDF>
      <cc:Work
         rdf:about="">
        <dc:format>image/svg+xml</dc:format>
        <dc:type
           rdf:resource="http://purl.org/dc/dcmitype/StillImage" />
      </cc:Work>
    </rdf:RDF>
  </metadata>
  <defs
     id="defs4634" />
  <sodipodi:namedview
     pagecolor="#ffffff"
     bordercolor="#666666"
     borderopacity="1"
     objecttolerance="10"
     gridtolerance="10"
     guidetolerance="10"
     inkscape:pageopacity="0"
     inkscape:pageshadow="2"
     inkscape:window-width="796"
     inkscape:window-height="480"
     id="namedview4632"
     showgrid="false"
     inkscape:zoom="0.4609375"
     inkscape:cx="37.5"
     inkscape:cy="29.999988"
     inkscape:window-x="2711"
     inkscape:window-y="1331"
     inkscape:window-maximized="0"
     inkscape:current-layer="svg4630">
    <inkscape:grid
       type="xygrid"
       id="grid4638"
       originx="-282.5"
       originy="-226.00001" />
  </sodipodi:namedview>
  <path
     d="m 24.375,37.5 h 45 c 1.03125,0 1.875,-0.84375 1.875,-1.875 v -30 C 71.25,4.59375 70.40625,3.75 69.375,3.75 H 52.5 v 15 L 46.875,15 41.25,18.75 v -15 H 24.375 C 23.34375,3.75 22.5,4.59375 22.5,5.625 v 30 c 0,1.03125 0.84375,1.875 1.875,1.875 z M 73.125,45 H 15 V 1.875 C 15,0.84375 14.15625,0 13.125,0 H 1.875 C 0.84375,0 0,0.84375 0,1.875 v 3.75 C 0,6.65625 0.84375,7.5 1.875,7.5 H 7.5 v 43.125 c 0,1.03125 0.84375,1.875 1.875,1.875 h 9.71484 C 18.87891,53.08594 18.75,53.71875 18.75,54.375 18.75,57.48047 21.26953,60 24.375,60 27.48047,60 30,57.48047 30,54.375 30,53.71875 29.85938,53.08594 29.66016,52.5 h 23.1914 c -0.21093,0.58594 -0.33984,1.21875 -0.33984,1.875 0,3.10547 2.51953,5.625 5.625,5.625 3.10547,0 5.625,-2.51953 5.625,-5.625 0,-0.65625 -0.14063,-1.28906 -0.33984,-1.875 H 73.125 C 74.15625,52.5 75,51.65625 75,50.625 v -3.75 C 75,45.84375 74.15625,45 73.125,45 Z"
     id="path4628"
     inkscape:connector-curvature="0"
     style="fill:#ffffff;stroke-width:0.11718751" />
</svg>
