<?xml version="1.0" encoding="UTF-8" standalone="no"?>
<svg
   xmlns:dc="http://purl.org/dc/elements/1.1/"
   xmlns:cc="http://creativecommons.org/ns#"
   xmlns:rdf="http://www.w3.org/1999/02/22-rdf-syntax-ns#"
   xmlns:svg="http://www.w3.org/2000/svg"
   xmlns="http://www.w3.org/2000/svg"
   xmlns:sodipodi="http://sodipodi.sourceforge.net/DTD/sodipodi-0.dtd"
   xmlns:inkscape="http://www.inkscape.org/namespaces/inkscape"
   viewBox="0 0 60 60"
   version="1.1"
   id="svg936"
   sodipodi:docname="facebook-square.svg"
   width="60"
   height="60"
   inkscape:version="0.92.2 (5c3e80d, 2017-08-06)">
  <metadata
     id="metadata942">
    <rdf:RDF>
      <cc:Work
         rdf:about="">
        <dc:format>image/svg+xml</dc:format>
        <dc:type
           rdf:resource="http://purl.org/dc/dcmitype/StillImage" />
      </cc:Work>
    </rdf:RDF>
  </metadata>
  <defs
     id="defs940" />
  <sodipodi:namedview
     pagecolor="#ffffff"
     bordercolor="#666666"
     borderopacity="1"
     objecttolerance="10"
     gridtolerance="10"
     guidetolerance="10"
     inkscape:pageopacity="0"
     inkscape:pageshadow="2"
     inkscape:window-width="796"
     inkscape:window-height="480"
     id="namedview938"
     showgrid="false"
     inkscape:zoom="0.4609375"
     inkscape:cx="30"
     inkscape:cy="30"
     inkscape:window-x="1920"
     inkscape:window-y="1107"
     inkscape:window-maximized="0"
     inkscape:current-layer="svg936" />
  <path
     d="M 60,6.4285688 V 53.571431 C 60,57.120544 57.120544,60 53.571431,60 H 42.147319 V 36.267863 h 8.116068 l 1.165182,-9.053569 h -9.28125 v -5.785725 c 0,-2.625 0.723225,-4.40625 4.486612,-4.40625 h 4.794638 V 8.9330437 C 50.598206,8.8259813 47.758931,8.5714313 44.4375,8.5714313 c -6.910706,0 -11.651794,4.2187497 -11.651794,11.9732057 v 6.683044 h -8.142843 v 9.053569 h 8.156249 V 60 H 6.4285688 C 2.879456,60 0,57.120544 0,53.571431 V 6.4285688 C 0,2.879456 2.879456,0 6.4285688,0 H 53.571431 C 57.120544,0 60,2.879456 60,6.4285688 Z"
     id="path934"
     inkscape:connector-curvature="0"
     style="fill:#ffffff;stroke-width:0.13392857" />
</svg>
