<?xml version="1.0" encoding="UTF-8" standalone="no"?>
<svg
   xmlns:dc="http://purl.org/dc/elements/1.1/"
   xmlns:cc="http://creativecommons.org/ns#"
   xmlns:rdf="http://www.w3.org/1999/02/22-rdf-syntax-ns#"
   xmlns:svg="http://www.w3.org/2000/svg"
   xmlns="http://www.w3.org/2000/svg"
   xmlns:sodipodi="http://sodipodi.sourceforge.net/DTD/sodipodi-0.dtd"
   xmlns:inkscape="http://www.inkscape.org/namespaces/inkscape"
   viewBox="0 0 30 30"
   version="1.1"
   id="svg124"
   sodipodi:docname="file-alt.svg"
   width="30"
   height="30"
   inkscape:version="0.92.2 (5c3e80d, 2017-08-06)">
  <metadata
     id="metadata130">
    <rdf:RDF>
      <cc:Work
         rdf:about="">
        <dc:format>image/svg+xml</dc:format>
        <dc:type
           rdf:resource="http://purl.org/dc/dcmitype/StillImage" />
      </cc:Work>
    </rdf:RDF>
  </metadata>
  <defs
     id="defs128" />
  <sodipodi:namedview
     pagecolor="#ffffff"
     bordercolor="#666666"
     borderopacity="1"
     objecttolerance="10"
     gridtolerance="10"
     guidetolerance="10"
     inkscape:pageopacity="0"
     inkscape:pageshadow="2"
     inkscape:window-width="1920"
     inkscape:window-height="983"
     id="namedview126"
     showgrid="false"
     inkscape:zoom="0.4609375"
     inkscape:cx="192"
     inkscape:cy="256"
     inkscape:window-x="1920"
     inkscape:window-y="1107"
     inkscape:window-maximized="1"
     inkscape:current-layer="svg124" />
  <path
     d="m 22.5,14.53125 v 1.64062 c 0,0.38672 -0.421875,0.70313 -0.9375,0.70313 H 8.4375 C 7.921875,16.875 7.5,16.55859 7.5,16.17187 v -1.64062 c 0,-0.38672 0.421875,-0.70313 0.9375,-0.70313 h 13.125 c 0.515625,0 0.9375,0.31641 0.9375,0.70313 z M 21.5625,18.75 H 8.4375 C 7.921875,18.75 7.5,19.06641 7.5,19.45312 v 1.64063 c 0,0.38672 0.421875,0.70312 0.9375,0.70312 h 13.125 c 0.515625,0 0.9375,-0.3164 0.9375,-0.70312 V 19.45312 C 22.5,19.06641 22.078125,18.75 21.5625,18.75 Z M 30,7.72852 V 27.1875 C 30,28.74023 28.320313,30 26.25,30 H 3.75 C 1.6796875,30 0,28.74023 0,27.1875 V 2.8125 C 0,1.25977 1.6796875,0 3.75,0 h 15.945313 c 0.992187,0 1.945312,0.29883 2.648437,0.82617 l 6.554687,4.91602 C 29.601562,6.26367 30,6.98437 30,7.72852 Z M 20,3.04102 V 7.5 h 5.945312 z m 6.25,24.14648 v -16.875 h -8.125 c -1.039063,0 -1.875,-0.62695 -1.875,-1.40625 V 2.8125 H 3.75 v 24.375 z"
     id="path122"
     inkscape:connector-curvature="0"
     style="stroke-width:0.06765823;fill:#ffffff" />
</svg>
