<?xml version="1.0" encoding="UTF-8" standalone="no"?>
<svg
   xmlns:dc="http://purl.org/dc/elements/1.1/"
   xmlns:cc="http://creativecommons.org/ns#"
   xmlns:rdf="http://www.w3.org/1999/02/22-rdf-syntax-ns#"
   xmlns:svg="http://www.w3.org/2000/svg"
   xmlns="http://www.w3.org/2000/svg"
   xmlns:sodipodi="http://sodipodi.sourceforge.net/DTD/sodipodi-0.dtd"
   xmlns:inkscape="http://www.inkscape.org/namespaces/inkscape"
   viewBox="0 0 31.999941 32"
   version="1.1"
   id="svg4705"
   sodipodi:docname="globe.svg"
   width="31.999941"
   height="32"
   inkscape:version="0.92.2 (5c3e80d, 2017-08-06)">
  <metadata
     id="metadata4711">
    <rdf:RDF>
      <cc:Work
         rdf:about="">
        <dc:format>image/svg+xml</dc:format>
        <dc:type
           rdf:resource="http://purl.org/dc/dcmitype/StillImage" />
      </cc:Work>
    </rdf:RDF>
  </metadata>
  <defs
     id="defs4709" />
  <sodipodi:namedview
     pagecolor="#ffffff"
     bordercolor="#666666"
     borderopacity="1"
     objecttolerance="10"
     gridtolerance="10"
     guidetolerance="10"
     inkscape:pageopacity="0"
     inkscape:pageshadow="2"
     inkscape:window-width="796"
     inkscape:window-height="480"
     id="namedview4707"
     showgrid="false"
     inkscape:zoom="5.2149125"
     inkscape:cx="17.776561"
     inkscape:cy="0.39252935"
     inkscape:window-x="2819"
     inkscape:window-y="1307"
     inkscape:window-maximized="0"
     inkscape:current-layer="svg4705" />
  <path
     d="m 22.98162,11.87097 h 8.47935 c 0.3509,1.31735 0.53897,2.70116 0.53897,4.12903 0,1.42787 -0.18807,2.81168 -0.53897,4.12903 h -8.47935 c 0.33251,-2.77735 0.31864,-5.59651 0,-8.25806 z M 11.43316,22.19355 c 0.68891,3.46322 2.1402,7.25897 4.5242,9.80593 0.0143,7e-5 0.0284,5.2e-4 0.0426,5.2e-4 0.0143,0 0.0284,-5.2e-4 0.0426,-5.2e-4 2.38787,-2.55116 3.83658,-6.34929 4.52419,-9.80593 z m 11.2342,-12.3871 h 8.08935 C 28.69691,4.90477 24.26632,1.24548 18.9,0.2629 c 1.95084,2.78194 3.14974,6.21497 3.76736,9.54355 z m -1.76452,2.06452 h -9.80568 c -0.34445,2.70413 -0.34484,5.55077 0,8.25806 h 9.80575 c 0.34445,-2.70419 0.34483,-5.55077 -7e-5,-8.25806 z M 9.33265,22.19355 H 1.24329 c 2.05974,4.90168 6.49033,8.56097 11.85665,9.54355 -1.95136,-2.78297 -3.14987,-6.21613 -3.76729,-9.54355 z m 13.33471,0 C 22.04962,25.5229 20.85039,28.95574 18.9,31.7371 24.26632,30.75452 28.69691,27.09523 30.75665,22.19355 Z M 20.56684,9.80645 C 19.87794,6.34323 18.42658,2.54748 16.04265,5.2e-4 16.02835,5.2e-4 16.01425,0 16.00005,0 c -0.0143,0 -0.0284,5.2e-4 -0.0426,5.2e-4 -2.38787,2.55116 -3.83658,6.34929 -4.5242,9.80593 z M 0.53903,11.87097 C 0.18807,13.18832 0,14.57213 0,16 c 0,1.42787 0.18807,2.81168 0.53903,4.12903 h 8.47936 c -0.31865,-2.66155 -0.33252,-5.48071 0,-8.25806 z M 9.33265,9.80645 C 9.95039,6.47729 11.14949,3.04452 13.1,0.2629 7.73368,1.24548 3.3031,4.90477 1.24329,9.80645 Z"
     id="path4703"
     inkscape:connector-curvature="0"
     style="fill:#ffffff;stroke-width:0.06451613" />
</svg>
