<?xml version="1.0" encoding="UTF-8" standalone="no"?>
<svg
   xmlns:dc="http://purl.org/dc/elements/1.1/"
   xmlns:cc="http://creativecommons.org/ns#"
   xmlns:rdf="http://www.w3.org/1999/02/22-rdf-syntax-ns#"
   xmlns:svg="http://www.w3.org/2000/svg"
   xmlns="http://www.w3.org/2000/svg"
   xmlns:sodipodi="http://sodipodi.sourceforge.net/DTD/sodipodi-0.dtd"
   xmlns:inkscape="http://www.inkscape.org/namespaces/inkscape"
   viewBox="0 0 60.013001 59.999615"
   version="1.1"
   id="svg892"
   sodipodi:docname="instagram.svg"
   width="60.013"
   height="59.999615"
   inkscape:version="0.92.2 (5c3e80d, 2017-08-06)">
  <metadata
     id="metadata898">
    <rdf:RDF>
      <cc:Work
         rdf:about="">
        <dc:format>image/svg+xml</dc:format>
        <dc:type
           rdf:resource="http://purl.org/dc/dcmitype/StillImage" />
      </cc:Work>
    </rdf:RDF>
  </metadata>
  <defs
     id="defs896" />
  <sodipodi:namedview
     pagecolor="#ffffff"
     bordercolor="#666666"
     borderopacity="1"
     objecttolerance="10"
     gridtolerance="10"
     guidetolerance="10"
     inkscape:pageopacity="0"
     inkscape:pageshadow="2"
     inkscape:window-width="796"
     inkscape:window-height="480"
     id="namedview894"
     showgrid="false"
     inkscape:zoom="0.4609375"
     inkscape:cx="29.9565"
     inkscape:cy="29.899806"
     inkscape:window-x="2364"
     inkscape:window-y="1163"
     inkscape:window-maximized="0"
     inkscape:current-layer="svg892" />
  <path
     d="m 30.013196,14.616666 c -8.514957,0 -15.383143,6.868185 -15.383143,15.383142 0,8.514955 6.868186,15.38314 15.383143,15.38314 8.514954,0 15.38314,-6.868186 15.38314,-15.38314 0,-8.514959 -6.868186,-15.383142 -15.38314,-15.383142 z m 0,25.384182 c -5.502588,0 -10.001041,-4.485065 -10.001041,-10.00104 0,-5.515976 4.485067,-10.001041 10.001041,-10.001041 5.515975,0 10.001058,4.485065 10.001058,10.001041 0,5.515975 -4.498471,10.00104 -10.001058,10.00104 z M 49.613652,13.987417 c 0,1.994846 -1.606609,3.588066 -3.588067,3.588066 -1.994845,0 -3.588068,-1.606608 -3.588068,-3.588066 0,-1.981458 1.606609,-3.588066 3.588068,-3.588066 1.981458,0 3.588067,1.606608 3.588067,3.588066 z m 10.188483,3.641618 C 59.57453,12.822633 58.476701,8.5651545 54.955571,5.0574306 51.447847,1.5497077 47.190369,0.45185999 42.383968,0.21086679 c -4.953664,-0.28115572 -19.801269,-0.28115572 -24.754933,0 C 12.836019,0.43847259 8.5785421,1.5363202 5.0574317,5.0440432 1.5363015,8.5517672 0.45186001,12.809245 0.21086681,17.615646 c -0.28115575,4.953666 -0.28115575,19.80127 0,24.754934 0.2276057,4.806401 1.32543469,9.063879 4.84656489,12.571603 3.5211104,3.507724 7.7652013,4.60557 12.5716033,4.846565 4.953663,0.281154 19.801268,0.281154 24.75493,0 4.806401,-0.227608 9.06388,-1.325455 12.571604,-4.846565 3.507725,-3.507724 4.605571,-7.765202 4.846564,-12.571605 0.281156,-4.953662 0.281156,-19.787881 2e-6,-24.741543 z m -6.399605,30.05669 c -1.044278,2.624112 -3.065917,4.645751 -5.703418,5.703418 -3.949528,1.566428 -13.321339,1.204947 -17.685916,1.204947 -4.364579,0 -13.749777,0.348093 -17.685919,-1.204947 C 9.7031641,52.344865 7.6815254,50.323224 6.6238591,47.685725 5.0574317,43.736196 5.4189113,34.364386 5.4189113,29.999808 c 0,-4.364579 -0.3480922,-13.749776 1.2049478,-17.685919 1.0442789,-2.6241117 3.065918,-4.6457512 5.7034179,-5.7034176 3.949529,-1.5664282 13.32134,-1.2049477 17.685919,-1.2049477 4.364577,0 13.749775,-0.3480931 17.685916,1.2049477 2.624113,1.044279 4.645751,3.0659189 5.703418,5.7034176 1.566428,3.949529 1.204947,13.32134 1.204947,17.685919 0,4.364578 0.361481,13.749775 -1.204947,17.685917 z"
     id="path890"
     inkscape:connector-curvature="0"
     style="fill:#ffffff;stroke-width:0.13388287" />
</svg>
