<?xml version="1.0" encoding="UTF-8" standalone="no"?>
<svg
   xmlns:dc="http://purl.org/dc/elements/1.1/"
   xmlns:cc="http://creativecommons.org/ns#"
   xmlns:rdf="http://www.w3.org/1999/02/22-rdf-syntax-ns#"
   xmlns:svg="http://www.w3.org/2000/svg"
   xmlns="http://www.w3.org/2000/svg"
   xmlns:sodipodi="http://sodipodi.sourceforge.net/DTD/sodipodi-0.dtd"
   xmlns:inkscape="http://www.inkscape.org/namespaces/inkscape"
   viewBox="0 0 31.999996 31.999996"
   version="1.1"
   id="svg4749"
   sodipodi:docname="reply-all.svg"
   width="31.999996"
   height="31.999996"
   inkscape:version="0.92.2 (5c3e80d, 2017-08-06)">
  <metadata
     id="metadata4755">
    <rdf:RDF>
      <cc:Work
         rdf:about="">
        <dc:format>image/svg+xml</dc:format>
        <dc:type
           rdf:resource="http://purl.org/dc/dcmitype/StillImage" />
      </cc:Work>
    </rdf:RDF>
  </metadata>
  <defs
     id="defs4753" />
  <sodipodi:namedview
     pagecolor="#ffffff"
     bordercolor="#666666"
     borderopacity="1"
     objecttolerance="10"
     gridtolerance="10"
     guidetolerance="10"
     inkscape:pageopacity="0"
     inkscape:pageshadow="2"
     inkscape:window-width="796"
     inkscape:window-height="480"
     id="namedview4751"
     showgrid="false"
     inkscape:zoom="0.4609375"
     inkscape:cx="15.999936"
     inkscape:cy="16.000493"
     inkscape:window-x="1920"
     inkscape:window-y="1107"
     inkscape:window-maximized="0"
     inkscape:current-layer="svg4749" />
  <path
     d="M 7.5727163,11.273964 17.350716,0.41790375 c 0.85595,-0.95035 2.20483,-0.17878 2.20483,1.29743005 v 5.91164 c 7.17678,0.73078 12.44445,3.7294202 12.44445,13.1105602 0,4.38864 -2.199,8.73635 -4.62961,11.00941 -0.7585,0.70936 -1.8395,-0.18092 -1.55983,-1.33078 2.13955,-8.79728 -0.21789,-12.10585 -6.25501,-13.00106 v 6.0125 c 0,1.47864 -1.35,2.24664 -2.20483,1.29742 l -9.7779997,-10.8562 c -0.61506,-0.68293 -0.61589,-1.91093 0,-2.59486 z m -7.11111,2.59486 9.7779997,10.85613 c 0.85483,0.94921 2.20483,0.18122 2.20483,-1.29743 v -1.12985 l -6.0336697,-6.69892 a 3.1088896,3.9971392 0 0 1 -1.07744,-3.0275 3.1085007,3.9966392 0 0 1 1.07739,-3.0271402 l 6.0337197,-6.699 v -1.12978 c 0,-1.47621005 -1.34889,-2.24778005 -2.20483,-1.29743005 L 0.4616063,11.273964 c -0.61589,0.68393 -0.61506,1.91193 0,2.59486 z"
     id="path4747"
     inkscape:connector-curvature="0"
     style="stroke-width:0.06299406;fill:#ffffff" />
</svg>
