<?xml version="1.0" encoding="UTF-8" standalone="no"?>
<svg
   xmlns:dc="http://purl.org/dc/elements/1.1/"
   xmlns:cc="http://creativecommons.org/ns#"
   xmlns:rdf="http://www.w3.org/1999/02/22-rdf-syntax-ns#"
   xmlns:svg="http://www.w3.org/2000/svg"
   xmlns="http://www.w3.org/2000/svg"
   xmlns:sodipodi="http://sodipodi.sourceforge.net/DTD/sodipodi-0.dtd"
   xmlns:inkscape="http://www.inkscape.org/namespaces/inkscape"
   viewBox="0 0 32 32"
   version="1.1"
   id="svg4793"
   sodipodi:docname="search-plus.svg"
   width="32"
   height="32"
   inkscape:version="0.92.2 (5c3e80d, 2017-08-06)">
  <metadata
     id="metadata4799">
    <rdf:RDF>
      <cc:Work
         rdf:about="">
        <dc:format>image/svg+xml</dc:format>
        <dc:type
           rdf:resource="http://purl.org/dc/dcmitype/StillImage" />
      </cc:Work>
    </rdf:RDF>
  </metadata>
  <defs
     id="defs4797" />
  <sodipodi:namedview
     pagecolor="#ffffff"
     bordercolor="#666666"
     borderopacity="1"
     objecttolerance="10"
     gridtolerance="10"
     guidetolerance="10"
     inkscape:pageopacity="0"
     inkscape:pageshadow="2"
     inkscape:window-width="796"
     inkscape:window-height="480"
     id="namedview4795"
     showgrid="false"
     inkscape:zoom="0.4609375"
     inkscape:cx="16.0125"
     inkscape:cy="16.025"
     inkscape:window-x="1920"
     inkscape:window-y="1107"
     inkscape:window-maximized="0"
     inkscape:current-layer="svg4793" />
  <path
     d="m 19.00093,11.99883 v 1.9998 c 0,0.41246 -0.33752,0.74993 -0.75004,0.74993 h -3.50017 v 3.49966 c 0,0.41246 -0.33752,0.74992 -0.75004,0.74992 h -2.00009 c -0.41252,0 -0.75004,-0.33746 -0.75004,-0.74992 V 14.74856 H 7.75038 c -0.41252,0 -0.75004,-0.33747 -0.75004,-0.74993 v -1.9998 c 0,-0.41246 0.33752,-0.74993 0.75004,-0.74993 h 3.50017 V 7.74924 c 0,-0.41246 0.33752,-0.74992 0.75004,-0.74992 h 2.00009 c 0.41252,0 0.75004,0.33746 0.75004,0.74992 v 3.49966 h 3.50017 c 0.41252,0 0.75004,0.33747 0.75004,0.74993 z m 12.56311,17.79201 -1.76884,1.76858 c -0.58752,0.58744 -1.53757,0.58744 -2.11885,0 l -6.2378,-6.23064 c -0.28127,-0.28123 -0.43752,-0.66244 -0.43752,-1.0624 v -1.01865 c -2.20636,1.72483 -4.9815,2.74973 -8.0004,2.74973 C 5.81903,25.99746 0,20.17928 0,12.99873 0,5.81818 5.81903,0 13.00063,0 c 7.18161,0 13.00064,5.81818 13.00064,12.99873 0,3.01846 -1.02505,5.79318 -2.75013,7.99922 h 1.0188 c 0.40001,0 0.78128,0.15623 1.06255,0.43746 l 6.23155,6.23064 c 0.58128,0.58744 0.58128,1.53735 0,2.12479 z M 21.50105,12.99873 c 0,-4.69954 -3.80019,-8.49917 -8.50042,-8.49917 -4.70022,0 -8.50041,3.79963 -8.50041,8.49917 0,4.69954 3.80019,8.49917 8.50041,8.49917 4.70023,0 8.50042,-3.79963 8.50042,-8.49917 z"
     id="path4791"
     inkscape:connector-curvature="0"
     style="stroke-width:0.06249847;fill:#ffffff" />
</svg>
