<?xml version="1.0" encoding="UTF-8" standalone="no"?>
<svg
   xmlns:dc="http://purl.org/dc/elements/1.1/"
   xmlns:cc="http://creativecommons.org/ns#"
   xmlns:rdf="http://www.w3.org/1999/02/22-rdf-syntax-ns#"
   xmlns:svg="http://www.w3.org/2000/svg"
   xmlns="http://www.w3.org/2000/svg"
   xmlns:sodipodi="http://sodipodi.sourceforge.net/DTD/sodipodi-0.dtd"
   xmlns:inkscape="http://www.inkscape.org/namespaces/inkscape"
   viewBox="0 0 60 60"
   version="1.1"
   id="svg980"
   sodipodi:docname="twitter-square.svg"
   width="60"
   height="60"
   inkscape:version="0.92.2 (5c3e80d, 2017-08-06)">
  <metadata
     id="metadata986">
    <rdf:RDF>
      <cc:Work
         rdf:about="">
        <dc:format>image/svg+xml</dc:format>
        <dc:type
           rdf:resource="http://purl.org/dc/dcmitype/StillImage" />
      </cc:Work>
    </rdf:RDF>
  </metadata>
  <defs
     id="defs984" />
  <sodipodi:namedview
     pagecolor="#ffffff"
     bordercolor="#666666"
     borderopacity="1"
     objecttolerance="10"
     gridtolerance="10"
     guidetolerance="10"
     inkscape:pageopacity="0"
     inkscape:pageshadow="2"
     inkscape:window-width="796"
     inkscape:window-height="480"
     id="namedview982"
     showgrid="false"
     inkscape:zoom="0.4609375"
     inkscape:cx="30"
     inkscape:cy="30"
     inkscape:window-x="1920"
     inkscape:window-y="1107"
     inkscape:window-maximized="0"
     inkscape:current-layer="svg980" />
  <path
     d="M 53.57143,0 H 6.42857 C 2.87946,0 0,2.87946 0,6.42857 V 53.57143 C 0,57.12054 2.87946,60 6.42857,60 H 53.57143 C 57.12054,60 60,57.12054 60,53.57143 V 6.42857 C 60,2.87946 57.12054,0 53.57143,0 Z m -6.54911,21.26786 c 0.0268,0.375 0.0268,0.76339 0.0268,1.13839 0,11.61161 -8.83929,24.99107 -24.99107,24.99107 -4.98215,0 -9.60268,-1.44643 -13.48661,-3.9375 0.70982,0.0804 1.39286,0.10714 2.11607,0.10714 4.11161,0 7.88839,-1.39285 10.90179,-3.75 -3.85715,-0.0804 -7.09822,-2.6116 -8.20983,-6.09375 1.35268,0.2009 2.57143,0.2009 3.96429,-0.16071 -4.01786,-0.81696 -7.03125,-4.35268 -7.03125,-8.625 v -0.10714 c 1.16518,0.65625 2.53125,1.05803 3.96429,1.1116 a 8.7652232,8.7652232 0 0 1 -3.91072,-7.3125 c 0,-1.63392 0.42857,-3.13392 1.19197,-4.43303 4.32589,5.33036 10.82142,8.8125 18.10714,9.1875 -1.24554,-5.95982 3.21428,-10.79464 8.57143,-10.79464 2.53125,0 4.80803,1.05803 6.41518,2.77232 1.98214,-0.375 3.88392,-1.11161 5.57142,-2.11607 -0.65625,2.03571 -2.03571,3.75 -3.85714,4.83482 1.76786,-0.1875 3.48214,-0.68304 5.0625,-1.36607 -1.19196,1.75446 -2.69196,3.30803 -4.40625,4.55357 z"
     id="path978"
     inkscape:connector-curvature="0"
     style="fill:#ffffff;stroke-width:0.13392857" />
</svg>
