<svg width="211" height="158" xmlns="http://www.w3.org/2000/svg" xmlns:xlink="http://www.w3.org/1999/xlink"><svg width="71.92" height="62" viewBox="-1 -1 71.92 62" x="77" xmlns="http://www.w3.org/2000/svg"><path d="M27.189 43.775c-4.564 0-8.864-.905-12.64-2.504-3.81 3.288-8.482 5.291-13.445 5.866a1.048 1.156 0 0 1-.108.007c-.454 0-.863-.335-.973-.812-.12-.53.253-.857.622-1.246 1.823-1.934 4.032-3.454 4.896-9.951C2.065 31.458 0 26.869 0 21.888 0 9.798 12.174 0 27.189 0s27.189 9.798 27.189 21.888c0 12.098-12.174 21.888-27.189 21.888zM69.316 58.13c-1.693-1.758-3.745-3.14-4.547-9.046 8.352-8.647 6.332-21.018-4.573-27.732.004.179.009.357.009.536 0 16.406-15.729 28.982-34.502 28.29 4.627 4.146 11.408 6.762 18.965 6.762 4.238 0 8.231-.823 11.738-2.277 3.537 2.99 7.875 4.81 12.484 5.332.46.053.894-.264 1.004-.732.11-.482-.235-.779-.577-1.133z" fill="#c7ae62" opacity=".99"/></svg><svg width="77" height="62" viewBox="-1 -1 77 62" xmlns="http://www.w3.org/2000/svg"><path d="M24.375 37.5h45a1.88 1.88 0 0 0 1.875-1.875v-30a1.88 1.88 0 0 0-1.875-1.875H52.5v15L46.875 15l-5.625 3.75v-15H24.375A1.88 1.88 0 0 0 22.5 5.625v30a1.88 1.88 0 0 0 1.875 1.875zm48.75 7.5H15V1.875A1.88 1.88 0 0 0 13.125 0H1.875A1.88 1.88 0 0 0 0 1.875v3.75A1.88 1.88 0 0 0 1.875 7.5H7.5v43.125A1.88 1.88 0 0 0 9.375 52.5h9.715a5.54 5.54 0 0 0-.34 1.875A5.626 5.626 0 0 0 24.375 60 5.626 5.626 0 0 0 30 54.375c0-.656-.14-1.29-.34-1.875h23.192a5.54 5.54 0 0 0-.34 1.875A5.626 5.626 0 0 0 58.137 60a5.626 5.626 0 0 0 5.625-5.625c0-.656-.14-1.29-.34-1.875h9.703A1.88 1.88 0 0 0 75 50.625v-3.75A1.88 1.88 0 0 0 73.125 45z" fill="#fff"/></svg><svg width="62" height="62" viewBox="-1 -1 62 62" x="62.01" y="62" xmlns="http://www.w3.org/2000/svg"><path d="M60 6.429V53.57A6.43 6.43 0 0 1 53.571 60H42.147V36.268h8.116l1.166-9.054h-9.282V21.43c0-2.625.724-4.407 4.487-4.407h4.795v-8.09c-.83-.107-3.67-.362-6.992-.362-6.91 0-11.651 4.22-11.651 11.974v6.683h-8.143v9.053h8.156V60H6.43A6.43 6.43 0 0 1 0 53.571V6.43A6.43 6.43 0 0 1 6.429 0H53.57A6.43 6.43 0 0 1 60 6.429z" fill="#fff"/></svg><svg width="34" height="34" viewBox="-1 -1 34 34" x="148.92" y="62" xmlns="http://www.w3.org/2000/svg"><path d="M22.982 11.871h8.479A16.02 16.02 0 0 1 32 16a16.02 16.02 0 0 1-.539 4.129h-8.48a35.029 35.029 0 0 0 0-8.258zM11.433 22.194c.69 3.463 2.14 7.259 4.524 9.805L16 32h.043c2.387-2.552 3.836-6.35 4.524-9.806zM22.667 9.806h8.09c-2.06-4.901-6.49-8.56-11.857-9.543 1.95 2.782 3.15 6.215 3.767 9.543zm-1.764 2.065h-9.806a33.108 33.108 0 0 0 0 8.258h9.806c.344-2.704.345-5.55 0-8.258zM9.333 22.194h-8.09c2.06 4.901 6.49 8.56 11.857 9.543-1.951-2.783-3.15-6.216-3.767-9.543zm13.334 0c-.617 3.329-1.817 6.762-3.767 9.543 5.366-.982 9.797-4.642 11.857-9.543zm-2.1-12.388c-.69-3.463-2.14-7.259-4.524-9.805L16 0h-.043c-2.387 2.552-3.836 6.35-4.524 9.806zM.539 11.871A16.018 16.018 0 0 0 0 16c0 1.428.188 2.812.539 4.129h8.48a35.028 35.028 0 0 1 0-8.258zm8.794-2.065C9.95 6.477 11.149 3.045 13.1.263c-5.366.982-9.797 4.642-11.857 9.543z" fill="#fff"/></svg><svg width="62.01" height="62" viewBox="-1 -1 62.01 62" y="62" xmlns="http://www.w3.org/2000/svg"><path d="M30.013 14.617A15.359 15.359 0 0 0 14.63 30a15.359 15.359 0 0 0 15.383 15.383A15.359 15.359 0 0 0 45.396 30a15.359 15.359 0 0 0-15.383-15.383zm0 25.384c-5.502 0-10-4.485-10-10.001 0-5.516 4.484-10.001 10-10.001s10.001 4.485 10.001 10c0 5.517-4.498 10.002-10 10.002zm19.6-26.014a3.58 3.58 0 0 1-3.587 3.588 3.58 3.58 0 0 1-3.588-3.588 3.588 3.588 0 0 1 7.176 0zm10.19 3.642c-.228-4.806-1.326-9.064-4.847-12.572C51.448 1.55 47.19.452 42.384.211 37.43-.07 22.583-.07 17.629.21c-4.793.227-9.05 1.325-12.572 4.833C1.537 8.552.452 12.809.211 17.616c-.281 4.953-.281 19.8 0 24.755.227 4.806 1.325 9.063 4.846 12.571 3.522 3.508 7.766 4.606 12.572 4.847 4.954.28 19.801.28 24.755 0 4.806-.228 9.064-1.326 12.572-4.847 3.507-3.508 4.605-7.765 4.846-12.571.281-4.954.281-19.788 0-24.742zm-6.4 30.057c-1.045 2.624-3.066 4.645-5.704 5.703-3.95 1.567-13.321 1.205-17.686 1.205-4.364 0-13.75.348-17.686-1.205-2.624-1.044-4.645-3.066-5.703-5.703C5.057 43.736 5.419 34.364 5.419 30c0-4.365-.348-13.75 1.205-17.686C7.668 9.69 9.69 7.668 12.327 6.61c3.95-1.566 13.322-1.204 17.686-1.204 4.365 0 13.75-.349 17.686 1.204 2.624 1.045 4.646 3.066 5.704 5.704 1.566 3.95 1.204 13.321 1.204 17.686 0 4.364.362 13.75-1.204 17.686z" fill="#fff"/></svg><svg width="34" height="34" viewBox="-1 -1 34 34" y="124" xmlns="http://www.w3.org/2000/svg"><path d="M7.573 11.274L17.35.418c.856-.95 2.205-.179 2.205 1.297v5.912C26.732 8.357 32 11.357 32 20.737c0 4.39-2.199 8.737-4.63 11.01-.758.71-1.84-.181-1.56-1.33 2.14-8.798-.217-12.107-6.254-13.002v6.013c0 1.478-1.35 2.246-2.205 1.297L7.573 13.869c-.615-.683-.616-1.911 0-2.595zM.462 13.869l9.778 10.856c.854.95 2.204.181 2.204-1.297v-1.13l-6.033-6.7a3.109 3.997 0 0 1-1.078-3.027 3.109 3.997 0 0 1 1.078-3.027l6.033-6.699v-1.13c0-1.476-1.348-2.247-2.204-1.297L.462 11.274c-.616.684-.615 1.912 0 2.595z" fill="#fff"/></svg><svg width="34" height="34" viewBox="-1 -1 34 34" x="34" y="124" xmlns="http://www.w3.org/2000/svg"><path d="M19 11.999v2c0 .412-.337.75-.75.75h-3.5v3.5c0 .412-.337.75-.75.75h-2a.752.752 0 0 1-.75-.75v-3.5h-3.5a.752.752 0 0 1-.75-.75v-2c0-.413.338-.75.75-.75h3.5v-3.5c0-.412.338-.75.75-.75h2c.413 0 .75.338.75.75v3.5h3.5c.413 0 .75.337.75.75zM31.565 29.79l-1.769 1.768a1.494 1.494 0 0 1-2.119 0l-6.237-6.23a1.499 1.499 0 0 1-.44-1.062v-1.018a12.938 12.938 0 0 1-8 2.75c-7.181-.001-13-5.82-13-13.001C0 5.819 5.819 0 13 0c7.182 0 13.001 5.818 13.001 12.999 0 3.018-1.025 5.793-2.75 7.999h1.019c.4 0 .781.156 1.062.437l6.232 6.231a1.512 1.512 0 0 1 0 2.125zM21.501 12.999c0-4.7-3.8-8.5-8.5-8.5S4.5 8.3 4.5 13s3.8 8.499 8.5 8.499 8.5-3.8 8.5-8.5z" fill="#fff"/></svg><svg width="34" height="34" viewBox="-1 -1 34 34" x="68" y="124" xmlns="http://www.w3.org/2000/svg"><path d="M30.8 20h-2.4v-3c0-1.379-.897-2.5-2-2.5h-9.2V12h2.4c.663 0 1.2-.672 1.2-1.5v-9c0-.828-.537-1.5-1.2-1.5h-7.2c-.663 0-1.2.672-1.2 1.5v9c0 .828.537 1.5 1.2 1.5h2.4v2.5H5.6c-1.103 0-2 1.121-2 2.5v3H1.2c-.663 0-1.2.672-1.2 1.5v9c0 .828.537 1.5 1.2 1.5h7.2c.663 0 1.2-.672 1.2-1.5v-9c0-.828-.537-1.5-1.2-1.5H6v-2.5h8.8V20h-2.4c-.663 0-1.2.672-1.2 1.5v9c0 .828.537 1.5 1.2 1.5h7.2c.663 0 1.2-.672 1.2-1.5v-9c0-.828-.537-1.5-1.2-1.5h-2.4v-2.5H26V20h-2.4c-.663 0-1.2.672-1.2 1.5v9c0 .828.537 1.5 1.2 1.5h7.2c.663 0 1.2-.672 1.2-1.5v-9c0-.828-.537-1.5-1.2-1.5z" fill="#fff"/></svg><svg width="62" height="62" viewBox="-1 -1 62 62" x="148.92" xmlns="http://www.w3.org/2000/svg"><path d="M53.571 0H6.43A6.43 6.43 0 0 0 0 6.429V53.57A6.43 6.43 0 0 0 6.429 60H53.57A6.43 6.43 0 0 0 60 53.571V6.43A6.43 6.43 0 0 0 53.571 0zm-6.549 21.268c.027.375.027.763.027 1.138 0 11.612-8.84 24.991-24.99 24.991A24.876 24.876 0 0 1 8.57 43.46c.71.08 1.393.107 2.117.107a17.61 17.61 0 0 0 10.901-3.75 8.795 8.795 0 0 1-8.21-6.094c1.353.201 2.572.201 3.965-.16a8.784 8.784 0 0 1-7.031-8.626v-.107a8.778 8.778 0 0 0 3.964 1.112 8.765 8.765 0 0 1-3.91-7.313c0-1.633.428-3.133 1.191-4.433a24.94 24.94 0 0 0 18.107 9.188c-1.245-5.96 3.214-10.795 8.572-10.795a8.752 8.752 0 0 1 6.415 2.773 17.212 17.212 0 0 0 5.571-2.116 8.76 8.76 0 0 1-3.857 4.834c1.768-.187 3.482-.683 5.063-1.366a18.489 18.489 0 0 1-4.407 4.554z" fill="#fff"/></svg></svg>